<?xml version="1.0" encoding="utf-8"?>
<!-- Uploaded to: SVG Repo, www.svgrepo.com, Generator: SVG Repo Mixer Tools -->
<svg width="800px" height="800px" viewBox="-5 0 48 48" xmlns="http://www.w3.org/2000/svg">
  <g id="_24" data-name="24" transform="translate(-835 -600.466)">
    <path id="Path_192" data-name="Path 192" d="M870.569,634.7,854,640.466,837.257,634.7l-.276-7.648,17.05,5.823,16.538-5.823Z" fill="#59bdff"/>
    <path id="Path_193" data-name="Path 193" d="M866.507,600.466H841.043A6.25,6.25,0,0,0,835,606.6v18.119l19,5.754,19-5.754V606.6C873,603.359,869.753,600.466,866.507,600.466ZM842.39,622.948a3.121,3.121,0,1,1,3.121-3.121A3.121,3.121,0,0,1,842.39,622.948ZM853,609.653l-15,3.2v-8.382h15Zm12.161,13.295a3.121,3.121,0,1,1,3.121-3.121A3.121,3.121,0,0,1,865.161,622.948Zm4.839-10.1-15-3.076v-5.306h15Z" fill="#59bdff"/>
    <path id="Path_194" data-name="Path 194" d="M867.762,648.466h4.622l-3.244-11.841-3.815,1.695.718,3.146H841.508l.718-3.052-3.815-1.8-3.244,11.848h4.622l.846-3h26.283Z" fill="#59bdff"/>
  </g>
</svg>